<?xml version="1.0" encoding="utf-8"?>
<!-- Generator: Adobe Illustrator 23.0.0, SVG Export Plug-In . SVG Version: 6.00 Build 0)  -->
<svg version="1.1" id="Livello_1" xmlns="http://www.w3.org/2000/svg" xmlns:xlink="http://www.w3.org/1999/xlink" x="0px" y="0px"
	 viewBox="0 0 300 300" style="enable-background:new 0 0 300 300;" xml:space="preserve">
<style type="text/css">
	.st0{clip-path:url(#SVGID_2_);fill-rule:evenodd;clip-rule:evenodd;}
	.st1{clip-path:url(#SVGID_2_);fill-rule:evenodd;clip-rule:evenodd;fill:#FFFFFF;}
	.st2{clip-path:url(#SVGID_2_);fill-rule:evenodd;clip-rule:evenodd;fill:#0081C2;}
	.st3{clip-path:url(#SVGID_2_);fill:#FFFFFF;}
	.st4{opacity:0.5;clip-path:url(#SVGID_2_);fill:#FFFFFF;}
</style>
<g>
	<defs>
		<rect id="SVGID_1_" width="300" height="300"/>
	</defs>
	<clipPath id="SVGID_2_">
		<use xlink:href="#SVGID_1_"  style="overflow:visible;"/>
	</clipPath>
	<rect class="st0" width="300" height="300"/>
	<rect x="38.3" y="93.64" class="st1" width="12.84" height="84.72"/>
	<polygon class="st2" points="52.14,135.87 89.77,93.64 107.48,93.64 69.85,135.87 107.69,178.36 89.98,178.36 	"/>
	<path class="st1" d="M144.75,105.15c16.64,0,30.15,13.82,30.15,30.85s-13.51,30.85-30.15,30.85c-16.64,0-30.14-13.82-30.14-30.85
		S128.11,105.15,144.75,105.15z M144.84,92.93c23.77,0,43.07,19.3,43.07,43.07s-19.3,43.07-43.07,43.07s-43.07-19.3-43.07-43.07
		S121.07,92.93,144.84,92.93z"/>
	<path class="st3" d="M248.86,136c0,12.74-0.36,20.48-4.52,25.12c-3.69,4.17-8.45,5.83-14.52,5.83h-19.48v-61.9h19.48
		c6.07,0,10.83,1.67,14.52,5.83C248.5,115.52,248.86,123.26,248.86,136z M261.7,136c0-13.69-0.36-23.93-6.42-31.66
		c-6.06-7.49-13.44-10.7-24.04-10.7h-33.75v84.72h33.75c10.6,0,17.98-3.21,24.04-10.7C261.34,159.93,261.7,149.69,261.7,136z"/>
	<polygon class="st4" points="52.89,220.11 45.8,207.97 51.87,200.46 50.08,200.46 40.12,212.74 40.12,200.46 38.63,200.46 
		38.63,220.11 40.12,220.11 40.12,214.78 44.81,209.1 51.13,220.11 	"/>
	<path class="st4" d="M67.63,210.29c0,4.14-0.11,5.74-1.52,7.15c-1.02,1.02-2.26,1.52-3.73,1.52c-1.46,0-2.71-0.5-3.73-1.52
		c-1.41-1.41-1.52-3.01-1.52-7.15c0-4.14,0.11-5.74,1.52-7.15c1.02-1.02,2.26-1.52,3.73-1.52c1.46,0,2.7,0.5,3.73,1.52
		C67.52,204.55,67.63,206.15,67.63,210.29z M69.12,210.29c0-4.77-0.14-6.29-1.96-8.11c-1.19-1.18-2.79-1.87-4.78-1.87
		c-1.99,0-3.59,0.69-4.78,1.87c-1.82,1.82-1.96,3.34-1.96,8.11c0,4.77,0.14,6.29,1.96,8.11c1.19,1.18,2.79,1.87,4.78,1.87
		c1.99,0,3.59-0.69,4.78-1.87C68.98,216.58,69.12,215.06,69.12,210.29z"/>
	<path class="st4" d="M86.34,210.29c0,2.57,0,5.46-1.46,6.98c-1.13,1.19-2.65,1.52-4.22,1.52h-4.75v-17h4.75
		c1.57,0,3.09,0.33,4.22,1.52C86.34,204.82,86.34,207.72,86.34,210.29z M87.83,210.29c0-2.95-0.06-6.1-1.9-8.03
		c-1.19-1.18-2.84-1.79-4.91-1.79h-6.59v19.64h6.59c2.07,0,3.73-0.61,4.91-1.79C87.8,216.44,87.83,213.24,87.83,210.29z"/>
	<rect x="93.13" y="200.46" class="st4" width="1.49" height="19.64"/>
	<path class="st4" d="M118.93,210.29c0,4.14-0.11,5.74-1.52,7.15c-1.02,1.02-2.26,1.52-3.73,1.52s-2.71-0.5-3.73-1.52
		c-1.41-1.41-1.52-3.01-1.52-7.15c0-4.14,0.11-5.74,1.52-7.15c1.02-1.02,2.26-1.52,3.73-1.52s2.71,0.5,3.73,1.52
		C118.82,204.55,118.93,206.15,118.93,210.29z M120.41,210.29c0-4.77-0.14-6.29-1.96-8.11c-1.19-1.18-2.79-1.87-4.78-1.87
		c-1.99,0-3.59,0.69-4.78,1.87c-1.82,1.82-1.96,3.34-1.96,8.11c0,4.77,0.14,6.29,1.96,8.11c1.19,1.18,2.79,1.87,4.78,1.87
		c1.99,0,3.59-0.69,4.78-1.87C120.28,216.58,120.41,215.06,120.41,210.29z"/>
	<polygon class="st4" points="140.03,220.11 140.03,200.46 138.54,200.46 138.54,217.49 127.2,200.46 125.71,200.46 125.71,220.11 
		127.2,220.11 127.2,203.03 138.54,220.11 	"/>
	<path class="st4" d="M165.06,210.29c0,2.57,0,5.46-1.46,6.98c-1.13,1.19-2.65,1.52-4.22,1.52h-4.75v-17h4.75
		c1.57,0,3.09,0.33,4.22,1.52C165.06,204.82,165.06,207.72,165.06,210.29z M166.55,210.29c0-2.95-0.06-6.1-1.9-8.03
		c-1.19-1.18-2.84-1.79-4.91-1.79h-6.59v19.64h6.59c2.07,0,3.73-0.61,4.91-1.79C166.52,216.44,166.55,213.24,166.55,210.29z"/>
	<polygon class="st4" points="183.77,220.11 183.77,218.79 173.34,218.79 173.34,210.86 182.22,210.86 182.22,209.54 173.34,209.54 
		173.34,201.79 183.77,201.79 183.77,200.46 171.85,200.46 171.85,220.11 	"/>
	<polygon class="st4" points="204.85,220.11 204.85,200.46 203.36,200.46 196.68,215.61 189.84,200.46 188.35,200.46 188.35,220.11 
		189.84,220.11 189.84,203.91 195.91,217.35 197.4,217.35 203.36,203.91 203.36,220.11 	"/>
	<path class="st4" d="M216.19,202.45l4.11,11.56h-8.22L216.19,202.45z M224.08,220.11l-7.23-19.64h-1.32l-7.23,19.64h1.6l1.71-4.77
		h9.16l1.71,4.77H224.08z"/>
	<polygon class="st4" points="241.85,220.11 241.85,200.46 240.36,200.46 240.36,217.49 229.02,200.46 227.53,200.46 227.53,220.11 
		229.02,220.11 229.02,203.03 240.36,220.11 	"/>
	<path class="st4" d="M259.84,210.29c0,2.57,0,5.46-1.46,6.98c-1.13,1.19-2.65,1.52-4.22,1.52h-4.75v-17h4.75
		c1.57,0,3.09,0.33,4.22,1.52C259.84,204.82,259.84,207.72,259.84,210.29z M261.33,210.29c0-2.95-0.06-6.1-1.9-8.03
		c-1.19-1.18-2.84-1.79-4.91-1.79h-6.59v19.64h6.59c2.07,0,3.73-0.61,4.91-1.79C261.3,216.44,261.33,213.24,261.33,210.29z"/>
</g>
</svg>
